<?xml version="1.0" standalone="no"?>
<!DOCTYPE svg PUBLIC "-//W3C//DTD SVG 20010904//EN"
 "http://www.w3.org/TR/2001/REC-SVG-20010904/DTD/svg10.dtd">
<svg version="1.0" xmlns="http://www.w3.org/2000/svg"
 width="1464.000000pt" height="1464.000000pt" viewBox="0 0 1464.000000 1464.000000"
 preserveAspectRatio="xMidYMid meet">
<metadata>
Created by potrace 1.14, written by Peter Selinger 2001-2017
</metadata>
<g transform="translate(0.000000,1464.000000) scale(0.100000,-0.100000)"
fill="#000000" stroke="none">
<path d="M560 12196 c-25 -6 -52 -11 -60 -11 -8 1 -19 -2 -25 -6 -5 -3 -23 -9
-38 -13 -17 -4 -25 -11 -21 -18 4 -7 3 -8 -5 -4 -12 8 -71 -14 -71 -25 0 -4
-11 -10 -25 -13 -14 -4 -25 -11 -25 -16 0 -6 -6 -10 -14 -10 -8 0 -23 -10 -33
-23 -10 -13 -26 -26 -37 -30 -11 -4 -16 -13 -12 -23 3 -8 2 -13 -3 -10 -9 6
-81 -72 -81 -87 0 -5 -7 -15 -16 -24 -8 -9 -13 -22 -10 -29 3 -8 0 -13 -6 -11
-5 1 -12 -7 -14 -17 -1 -10 -8 -22 -14 -26 -7 -4 -11 -9 -10 -11 1 -2 -3 -24
-10 -49 -7 -25 -15 -56 -19 -70 -10 -40 -7 -8672 3 -8695 5 -11 8 -24 7 -29
-5 -24 62 -186 81 -194 5 -2 8 -8 8 -14 0 -18 52 -78 63 -71 5 3 8 2 4 -3 -3
-5 1 -18 9 -29 8 -10 14 -15 14 -11 0 5 10 -3 21 -18 12 -15 23 -25 26 -22 2
2 18 -10 34 -26 16 -17 29 -28 29 -24 0 3 10 0 23 -9 13 -8 27 -12 30 -8 4 3
7 2 7 -4 0 -11 26 -23 117 -53 29 -10 53 -14 53 -9 0 4 14 2 32 -5 21 -9 40
-11 55 -5 13 5 23 5 23 0 0 -5 16 -5 35 -1 20 4 38 4 41 -1 3 -5 13 -5 25 1
12 7 19 7 19 1 0 -6 11 -6 30 -1 17 5 30 5 30 1 0 -9 31 -8 48 3 6 4 12 3 12
-2 0 -6 14 -7 35 -2 20 4 38 4 41 -1 3 -5 13 -5 25 1 12 7 19 7 19 1 0 -6 11
-6 30 -1 17 5 30 5 30 1 0 -9 31 -8 48 3 6 4 12 3 12 -2 0 -6 14 -7 35 -2 20
5 33 4 29 -1 -3 -5 0 -9 5 -9 6 0 11 5 11 11 0 5 6 7 12 3 17 -11 48 -12 48
-3 0 5 12 4 26 -1 16 -7 23 -7 19 0 -3 6 -1 10 4 10 6 0 11 -3 11 -7 0 -9 52
-9 66 0 6 3 16 2 24 -3 8 -5 21 -5 31 1 12 6 19 5 22 -4 4 -9 6 -9 6 1 1 7 6
10 13 6 15 -10 67 -11 61 -1 -2 4 1 7 6 7 6 0 11 -4 11 -8 0 -9 53 -7 69 3 6
3 11 2 11 -4 0 -6 11 -6 30 -1 17 5 30 5 30 1 0 -9 31 -8 48 3 6 4 12 3 12 -2
0 -6 14 -7 35 -2 20 5 33 4 29 -1 -3 -5 0 -9 5 -9 6 0 11 5 11 11 0 5 6 7 12
3 17 -11 48 -12 48 -3 0 5 12 4 26 -1 16 -7 23 -7 19 0 -3 6 -1 10 4 10 6 0
11 -3 11 -7 0 -9 52 -9 66 0 6 3 16 2 24 -3 8 -5 21 -5 31 1 12 6 19 5 22 -4
4 -9 6 -9 6 1 1 7 6 10 13 6 15 -10 67 -11 61 -1 -2 4 1 7 6 7 6 0 11 -4 11
-8 0 -9 53 -7 69 3 6 3 11 2 11 -4 0 -6 11 -6 30 -1 16 5 30 5 30 1 0 -9 31
-8 48 3 6 4 12 3 12 -2 0 -6 14 -7 35 -2 20 5 33 4 29 -1 -3 -5 0 -9 5 -9 6 0
11 5 11 11 0 6 5 7 13 2 17 -11 41 -10 50 2 4 7 10 7 15 0 9 -13 42 -16 42 -3
0 5 5 6 12 2 16 -10 58 -12 52 -2 -3 4 0 8 5 8 6 0 11 -4 11 -8 0 -9 53 -7 69
3 6 3 11 2 11 -4 0 -6 11 -6 30 -1 17 5 30 5 30 1 0 -9 31 -8 48 3 6 4 12 3
12 -2 0 -6 14 -7 35 -2 20 5 33 4 29 -1 -3 -5 0 -9 5 -9 6 0 11 5 11 11 0 6 5
7 13 2 17 -11 41 -10 50 2 5 7 10 7 15 0 9 -13 42 -16 42 -3 0 5 5 6 12 2 16
-10 58 -12 52 -2 -3 4 0 8 5 8 6 0 11 -4 11 -8 0 -9 53 -7 69 3 6 3 11 2 11
-4 0 -6 11 -6 30 -1 16 5 30 5 30 1 0 -9 31 -8 48 3 6 4 12 3 12 -2 0 -6 14
-7 35 -2 20 5 33 4 29 -1 -3 -5 0 -9 5 -9 6 0 11 5 11 11 0 6 5 7 13 2 17 -11
41 -10 50 2 5 7 10 7 15 0 9 -13 42 -16 42 -3 0 5 5 6 12 2 16 -10 58 -12 52
-2 -3 4 0 8 5 8 6 0 11 -4 11 -8 0 -9 53 -7 69 3 6 3 11 2 11 -4 0 -6 11 -6
30 -1 17 5 30 5 30 1 0 -8 53 -6 76 3 6 2 17 1 24 -4 7 -4 25 -4 40 0 15 4 33
4 40 0 7 -4 25 -4 40 0 15 4 33 4 40 0 7 -4 25 -4 40 0 15 4 33 4 40 0 7 -4
25 -4 40 0 15 4 33 4 40 0 7 -4 25 -4 40 0 15 4 33 4 40 0 7 -4 25 -4 40 0 15
4 33 4 40 0 7 -4 25 -4 40 0 15 4 33 4 41 -1 8 -4 19 -3 26 3 7 6 13 6 13 1 0
-5 9 -9 20 -9 11 0 20 4 20 9 0 4 5 5 12 1 16 -10 58 -12 52 -2 -3 4 0 8 5 8
6 0 11 -4 11 -8 0 -9 53 -7 69 3 6 3 11 2 11 -4 0 -6 11 -6 30 -1 16 5 30 5
30 1 0 -9 31 -8 48 3 6 4 12 3 12 -2 0 -6 14 -7 35 -2 20 5 33 4 29 -1 -3 -5
0 -9 5 -9 6 0 11 5 11 11 0 6 5 7 13 2 17 -11 41 -10 50 2 5 7 10 7 15 0 9
-13 42 -16 42 -3 0 5 5 6 12 2 16 -10 58 -12 52 -2 -3 4 0 8 5 8 6 0 11 -4 11
-8 0 -9 53 -7 69 3 6 3 11 2 11 -4 0 -6 11 -6 30 -1 16 5 30 5 30 1 0 -9 31
-8 48 3 6 4 12 3 12 -2 0 -6 14 -7 35 -2 20 5 33 4 29 -1 -3 -5 0 -9 5 -9 6 0
11 5 11 11 0 6 5 7 13 2 17 -11 41 -10 50 2 5 7 10 7 15 0 9 -13 42 -16 42 -3
0 5 5 6 12 2 16 -10 58 -12 52 -2 -3 4 0 8 5 8 6 0 11 -4 11 -8 0 -9 53 -7 69
3 6 3 11 2 11 -4 0 -6 11 -6 30 -1 17 5 30 5 30 1 0 -8 53 -6 76 3 6 2 17 1
24 -4 7 -4 25 -4 40 0 15 4 33 4 40 0 7 -4 25 -4 40 0 15 4 33 4 40 0 7 -4 25
-4 40 0 15 4 33 4 40 0 7 -4 25 -4 40 0 15 4 33 4 40 0 7 -4 25 -4 40 0 15 4
33 4 40 0 7 -4 25 -4 40 0 15 4 33 4 40 0 7 -4 25 -4 40 0 15 4 33 4 41 -1 8
-4 19 -3 26 3 7 6 13 6 13 1 0 -5 9 -9 20 -9 11 0 20 4 20 9 0 4 5 5 12 1 16
-10 58 -12 52 -2 -3 4 0 8 5 8 6 0 11 -4 11 -8 0 -9 53 -7 69 3 6 3 11 2 11
-4 0 -6 11 -6 30 -1 16 5 30 5 30 1 0 -9 31 -8 48 3 6 4 12 3 12 -2 0 -6 14
-7 35 -2 20 5 33 4 29 -1 -3 -5 0 -9 5 -9 6 0 11 5 11 11 0 6 5 7 13 2 17 -11
41 -10 50 2 5 7 10 7 15 0 9 -13 42 -16 42 -3 0 5 5 6 12 2 16 -10 58 -12 52
-2 -3 4 0 8 5 8 6 0 11 -4 11 -8 0 -9 53 -7 69 3 6 3 11 2 11 -4 0 -6 11 -6
30 -1 16 5 30 5 30 1 0 -9 31 -8 48 3 6 4 12 3 12 -2 0 -6 14 -7 35 -2 20 5
33 4 29 -1 -3 -5 0 -9 5 -9 6 0 11 5 11 11 0 6 5 7 13 2 17 -11 41 -10 50 2 5
7 10 7 15 0 9 -13 42 -16 42 -3 0 5 5 6 12 2 16 -10 58 -12 52 -2 -3 4 0 8 5
8 6 0 11 -4 11 -8 0 -9 53 -7 69 3 6 3 11 2 11 -4 0 -6 11 -6 30 -1 16 5 30 6
30 2 0 -4 20 -7 44 -7 24 0 42 3 39 8 -2 4 1 7 6 7 6 0 11 -3 11 -7 0 -9 52
-9 66 0 6 3 16 2 24 -3 8 -5 21 -5 31 1 12 6 19 5 22 -4 4 -9 6 -9 6 1 1 7 6
10 13 6 15 -10 67 -11 61 -1 -2 4 1 7 6 7 6 0 11 -4 11 -8 0 -9 53 -7 69 3 6
3 11 2 11 -4 0 -6 11 -6 30 -1 16 5 30 5 30 1 0 -9 31 -8 48 3 6 4 12 3 12 -2
0 -6 14 -7 35 -2 20 5 33 4 29 -1 -3 -5 0 -9 5 -9 6 0 11 5 11 11 0 5 6 7 12
3 17 -11 48 -12 48 -3 0 5 12 4 26 -1 16 -7 23 -7 19 0 -3 6 -1 10 4 10 6 0
11 -3 11 -7 0 -9 52 -9 66 0 6 3 16 2 24 -3 8 -5 21 -5 31 1 12 6 19 5 22 -4
4 -9 6 -9 6 1 1 7 6 10 13 6 15 -10 67 -11 61 -2 -2 5 1 8 6 8 6 0 11 -4 11
-8 0 -9 53 -7 69 3 6 3 11 2 11 -4 0 -6 11 -6 30 -1 16 5 30 5 30 1 0 -9 31
-8 48 3 6 4 12 3 12 -2 0 -6 14 -7 35 -2 20 5 33 4 29 -1 -3 -5 0 -9 5 -9 6 0
11 5 11 11 0 5 6 7 12 3 17 -11 48 -12 48 -3 0 5 12 4 26 -1 16 -7 23 -7 19 0
-3 6 -1 10 4 10 6 0 11 -3 11 -7 0 -9 52 -9 66 0 6 3 16 2 24 -3 8 -5 21 -5
31 1 12 6 19 5 22 -4 4 -9 6 -9 6 1 1 7 6 10 13 6 15 -10 67 -11 61 -2 -2 5 1
8 6 8 6 0 11 -4 11 -8 0 -9 53 -7 69 3 6 3 11 2 11 -4 0 -6 11 -6 30 -1 17 5
30 5 30 1 0 -9 31 -8 48 3 6 4 12 3 12 -2 0 -6 14 -7 35 -2 20 5 33 4 29 -1
-3 -5 0 -9 5 -9 6 0 11 5 11 11 0 5 6 7 12 3 17 -11 48 -12 48 -3 0 5 12 4 26
-1 16 -7 23 -7 19 0 -3 6 -1 10 4 10 6 0 11 -3 11 -7 0 -9 52 -9 66 0 6 3 16
2 24 -3 8 -5 21 -5 31 1 12 6 19 5 22 -4 4 -9 6 -9 6 1 1 7 6 10 13 6 15 -10
67 -11 61 -1 -2 4 1 7 6 7 6 0 11 -4 11 -8 0 -9 53 -7 69 3 6 3 11 2 11 -4 0
-6 11 -6 30 -1 17 5 30 5 30 1 0 -9 31 -8 48 3 6 4 12 3 12 -2 0 -6 14 -7 35
-2 20 5 33 4 29 -1 -3 -5 0 -9 5 -9 6 0 11 5 11 11 0 5 6 7 12 3 17 -11 48
-12 48 -3 0 5 12 4 26 -1 16 -7 23 -7 19 0 -3 6 -1 10 4 10 6 0 11 -3 11 -7 0
-9 52 -9 66 0 6 3 16 2 24 -3 8 -5 21 -5 31 1 12 6 19 5 22 -4 4 -9 6 -9 6 1
1 7 6 10 13 6 15 -10 67 -11 61 -2 -2 5 1 8 6 8 6 0 11 -4 11 -8 0 -9 53 -7
69 3 6 3 11 2 11 -4 0 -6 11 -6 30 -1 16 5 30 5 30 1 0 -9 31 -8 48 3 6 4 12
3 12 -2 0 -6 14 -7 35 -2 20 5 33 4 29 -1 -3 -5 0 -9 5 -9 6 0 11 5 11 11 0 5
6 7 12 3 17 -11 48 -12 48 -3 0 5 12 4 26 -1 16 -7 23 -7 19 0 -3 6 -1 10 4
10 6 0 11 -3 11 -7 0 -9 52 -9 66 0 6 3 16 2 24 -3 8 -5 21 -5 31 1 12 6 19 5
22 -4 4 -9 6 -9 6 1 1 7 6 10 13 6 15 -10 67 -11 61 -2 -2 5 1 8 6 8 6 0 11
-4 11 -8 0 -9 53 -7 69 3 6 3 11 2 11 -4 0 -6 11 -6 30 -1 16 5 30 5 30 1 0
-9 31 -8 48 3 6 4 12 3 12 -2 0 -6 14 -7 35 -2 20 5 33 4 29 -1 -3 -5 0 -9 5
-9 6 0 11 5 11 11 0 5 6 7 12 3 17 -11 48 -12 48 -3 0 5 12 4 26 -1 16 -7 23
-7 19 0 -3 6 -1 10 4 10 6 0 11 -3 11 -7 0 -9 52 -9 66 0 6 3 16 2 24 -3 8 -5
21 -5 31 1 12 6 19 5 22 -4 4 -9 6 -9 6 1 1 7 6 10 13 6 15 -10 67 -11 61 -2
-2 5 1 8 6 8 6 0 11 -4 11 -8 0 -9 53 -7 69 3 6 3 11 2 11 -4 0 -6 11 -6 30
-1 16 5 30 5 30 1 0 -9 31 -8 48 3 6 4 12 3 12 -2 0 -6 14 -7 35 -2 20 5 33 4
29 -1 -3 -5 0 -9 5 -9 6 0 11 5 11 11 0 5 6 7 12 3 17 -11 48 -12 48 -3 0 5
12 4 26 -1 16 -7 23 -7 19 0 -3 6 -1 10 4 10 6 0 11 -3 11 -7 0 -9 52 -9 66 0
6 3 16 2 24 -3 8 -5 21 -5 31 1 12 6 19 5 22 -4 4 -9 6 -9 6 1 1 7 6 10 13 6
15 -10 67 -11 61 -2 -2 5 1 8 6 8 6 0 11 -4 11 -8 0 -9 53 -7 69 3 6 3 11 2
11 -4 0 -6 11 -6 30 -1 16 5 30 5 30 1 0 -9 31 -8 48 3 6 4 12 3 12 -2 0 -6
14 -7 35 -2 20 5 33 4 29 -1 -3 -5 0 -9 5 -9 6 0 11 5 11 11 0 6 5 7 13 2 17
-11 41 -10 50 2 5 7 10 7 15 0 9 -13 42 -16 42 -3 0 5 5 6 12 2 16 -10 58 -12
52 -2 -3 4 0 8 5 8 6 0 11 -4 11 -8 0 -9 53 -7 69 3 6 3 11 2 11 -4 0 -6 11
-6 30 -1 16 5 30 5 30 1 0 -9 31 -8 48 3 6 4 12 3 12 -2 0 -6 14 -7 35 -2 20
5 33 4 29 -1 -3 -5 0 -9 5 -9 6 0 11 5 11 11 0 6 5 7 13 2 17 -11 41 -10 50 2
5 7 10 7 15 0 9 -13 42 -16 42 -3 0 5 5 6 12 2 16 -10 58 -12 52 -2 -3 4 0 8
5 8 6 0 11 -4 11 -8 0 -9 53 -7 69 3 6 3 11 2 11 -4 0 -6 11 -6 30 -1 16 5 30
5 30 1 0 -9 31 -8 48 3 6 4 12 3 12 -2 0 -6 14 -7 35 -2 20 5 33 4 29 -1 -3
-5 0 -9 5 -9 6 0 11 5 11 11 0 6 5 7 13 2 17 -11 41 -10 50 2 5 7 10 7 15 0 9
-13 42 -16 42 -3 0 5 5 6 12 2 16 -10 58 -12 52 -2 -3 4 0 8 5 8 6 0 11 -4 11
-8 0 -9 53 -7 69 3 6 3 11 2 11 -4 0 -7 8 -7 23 -2 12 4 33 5 47 1 14 -4 30
-3 35 1 6 4 24 9 40 12 55 9 90 20 115 36 13 9 25 15 27 13 5 -4 68 30 75 42
4 6 8 7 8 3 0 -11 22 7 94 78 66 65 110 115 100 115 -4 0 -1 6 5 13 6 8 7 18
3 22 -4 5 -2 5 5 2 10 -6 38 46 34 65 0 5 4 8 10 8 6 0 9 7 6 15 -4 8 -2 17 2
19 5 3 12 20 16 38 4 18 10 40 13 48 4 8 8 1950 9 4314 3 3440 1 4302 -9 4314
-11 13 -11 14 0 8 9 -6 11 -2 8 16 -3 12 -8 37 -11 53 -15 80 -56 181 -67 169
-4 -3 -6 1 -5 8 1 32 -4 49 -13 43 -5 -3 -12 6 -16 20 -3 14 -13 25 -21 25 -8
0 -11 5 -8 10 3 6 -1 13 -9 16 -9 3 -13 10 -10 15 3 5 -3 9 -12 9 -10 0 -15 3
-11 6 8 8 -18 34 -33 34 -6 0 -9 4 -6 8 3 4 -13 19 -35 32 -21 14 -39 28 -39
33 0 4 -4 6 -9 2 -5 -3 -16 2 -24 10 -9 8 -20 15 -26 15 -6 0 -11 4 -11 8 0 4
-10 9 -22 9 -13 1 -24 7 -26 13 -2 5 -13 10 -23 10 -11 0 -29 5 -40 10 -10 6
-51 13 -90 15 -39 2 -74 6 -76 9 -3 3 -14 1 -24 -4 -12 -7 -20 -7 -24 0 -5 8
-11 8 -19 1 -7 -6 -16 -8 -19 -4 -11 10 -57 10 -57 0 0 -5 -6 -5 -13 1 -8 7
-18 7 -27 2 -9 -5 -19 -5 -26 1 -8 7 -14 6 -19 -1 -3 -6 -11 -7 -18 -3 -17 10
-57 10 -57 0 0 -5 -6 -5 -13 1 -8 7 -18 7 -27 2 -9 -5 -19 -5 -26 1 -8 7 -14
6 -19 -1 -3 -6 -11 -7 -18 -3 -17 10 -57 10 -57 0 0 -5 -6 -5 -13 1 -8 7 -18
7 -27 2 -9 -5 -19 -5 -26 1 -8 7 -14 6 -19 -1 -3 -6 -11 -7 -18 -3 -17 10 -57
10 -57 0 0 -5 -6 -5 -13 1 -8 7 -18 7 -27 2 -9 -5 -19 -5 -26 1 -8 7 -14 6
-19 -1 -3 -6 -11 -7 -18 -3 -17 10 -57 10 -57 0 0 -5 -6 -5 -13 1 -8 7 -18 7
-27 2 -9 -5 -19 -5 -26 1 -8 7 -14 6 -19 -1 -3 -6 -11 -7 -18 -3 -17 10 -57
10 -57 0 0 -5 -6 -5 -13 1 -8 7 -18 7 -27 2 -9 -5 -19 -5 -26 1 -8 7 -14 6
-19 -1 -3 -6 -11 -7 -18 -3 -17 10 -57 10 -57 -1 0 -6 -5 -5 -12 2 -7 7 -17 8
-29 2 -11 -7 -20 -7 -24 0 -3 5 -15 6 -29 0 -12 -4 -28 -5 -34 -1 -15 9 -54 7
-72 -4 -8 -5 -15 -4 -17 1 -4 11 -55 10 -72 0 -5 -4 -12 -2 -16 3 -3 7 -15 7
-29 1 -13 -5 -26 -6 -29 -3 -10 9 -77 9 -77 -1 0 -4 -8 -2 -17 5 -15 12 -16
12 -8 -1 7 -12 6 -13 -6 -3 -12 10 -18 10 -27 1 -7 -7 -12 -8 -12 -2 0 6 -7
11 -15 11 -8 0 -15 -5 -15 -10 0 -5 -5 -5 -13 1 -8 7 -18 7 -27 2 -8 -5 -18
-6 -23 -3 -16 10 -67 9 -67 -1 0 -6 -4 -5 -9 3 -7 11 -9 11 -14 0 -3 -8 -6 -9
-6 -3 -1 11 -52 11 -70 0 -5 -4 -12 -2 -16 3 -3 7 -15 7 -29 1 -13 -5 -26 -6
-29 -3 -10 9 -77 9 -77 -1 0 -4 -8 -2 -17 5 -15 12 -16 12 -8 -1 7 -12 6 -13
-6 -3 -12 10 -18 10 -27 1 -7 -7 -12 -8 -12 -2 0 6 -7 11 -15 11 -8 0 -15 -5
-15 -10 0 -5 -5 -5 -13 1 -8 7 -18 7 -27 2 -8 -5 -18 -6 -23 -3 -16 10 -67 9
-67 -1 0 -6 -4 -5 -9 3 -7 11 -9 11 -14 0 -3 -8 -6 -9 -6 -3 -1 11 -52 11 -70
0 -5 -4 -12 -2 -16 3 -3 7 -15 7 -29 1 -13 -5 -26 -6 -29 -3 -10 9 -77 9 -77
-1 0 -4 -8 -2 -17 5 -15 12 -16 12 -8 -1 7 -12 6 -13 -6 -3 -12 10 -18 10 -27
1 -7 -7 -12 -8 -12 -2 0 6 -7 11 -15 11 -8 0 -15 -5 -15 -10 0 -5 -5 -5 -13 1
-8 7 -18 7 -27 2 -8 -5 -18 -6 -23 -3 -16 10 -67 9 -67 -1 0 -6 -4 -5 -9 3 -7
11 -9 11 -14 0 -3 -8 -6 -9 -6 -3 -1 11 -52 11 -70 0 -5 -4 -12 -2 -16 3 -3 7
-15 7 -29 1 -13 -5 -26 -6 -29 -3 -10 9 -77 9 -77 -1 0 -4 -8 -2 -17 5 -15 12
-16 12 -8 -1 7 -12 6 -13 -6 -3 -12 10 -18 10 -27 1 -7 -7 -12 -8 -12 -2 0 6
-7 11 -15 11 -8 0 -15 -5 -15 -10 0 -5 -5 -5 -13 1 -8 7 -18 7 -27 2 -8 -5
-18 -6 -23 -3 -16 10 -67 9 -67 -1 0 -6 -4 -5 -9 3 -7 11 -9 11 -14 0 -3 -8
-6 -9 -6 -3 -1 11 -52 11 -70 0 -5 -4 -12 -2 -16 3 -3 7 -15 7 -29 1 -13 -5
-26 -6 -29 -3 -10 9 -77 9 -77 -1 0 -4 -8 -2 -17 5 -15 12 -16 12 -8 -1 7 -12
6 -13 -6 -3 -12 10 -18 10 -27 1 -7 -7 -12 -8 -12 -2 0 6 -7 11 -15 11 -8 0
-15 -5 -15 -10 0 -5 -5 -5 -13 1 -8 7 -18 7 -27 2 -8 -5 -18 -6 -23 -3 -16 10
-67 9 -67 -1 0 -6 -4 -5 -9 3 -7 11 -9 11 -14 0 -3 -8 -6 -9 -6 -3 -1 11 -52
11 -70 0 -5 -4 -12 -2 -16 3 -3 7 -15 7 -29 1 -13 -5 -26 -6 -29 -3 -10 9 -77
9 -77 -1 0 -4 -8 -2 -17 5 -15 12 -16 12 -8 -1 7 -12 6 -13 -6 -3 -12 10 -18
10 -27 1 -7 -7 -12 -8 -12 -2 0 6 -7 11 -15 11 -8 0 -15 -5 -15 -10 0 -5 -5
-5 -13 1 -8 7 -18 7 -27 2 -8 -5 -18 -6 -23 -3 -16 10 -67 9 -67 -1 0 -6 -4
-5 -9 3 -7 11 -9 11 -14 0 -3 -8 -6 -9 -6 -3 -1 11 -52 11 -70 0 -5 -4 -12 -2
-16 3 -3 7 -15 7 -29 1 -13 -5 -26 -6 -29 -3 -10 9 -77 9 -77 -1 0 -4 -8 -2
-17 5 -15 12 -16 12 -8 -1 7 -12 6 -13 -6 -3 -12 10 -18 10 -27 1 -7 -7 -12
-8 -12 -2 0 6 -7 11 -15 11 -8 0 -15 -5 -15 -10 0 -5 -5 -5 -13 1 -8 7 -18 7
-27 2 -8 -5 -18 -6 -23 -3 -16 10 -67 9 -67 -1 0 -6 -4 -5 -9 3 -7 11 -9 11
-14 0 -3 -8 -6 -9 -6 -3 -1 11 -52 11 -70 0 -5 -4 -12 -2 -16 3 -3 7 -15 7
-29 1 -13 -5 -26 -6 -29 -3 -10 9 -77 9 -77 -1 0 -4 -8 -2 -17 5 -15 12 -16
12 -8 -1 7 -12 6 -13 -6 -3 -12 10 -18 10 -27 1 -7 -7 -12 -8 -12 -2 0 6 -7
11 -15 11 -8 0 -15 -5 -15 -10 0 -5 -5 -5 -13 1 -8 7 -18 7 -27 2 -8 -5 -18
-6 -23 -3 -16 10 -67 9 -67 -1 0 -6 -4 -5 -9 3 -7 11 -9 11 -14 0 -3 -8 -6 -9
-6 -3 -1 11 -52 11 -70 0 -5 -4 -12 -2 -16 3 -3 7 -15 7 -29 1 -13 -5 -26 -6
-29 -3 -10 9 -77 9 -77 -1 0 -4 -8 -2 -17 5 -15 12 -16 12 -8 -1 7 -12 6 -13
-6 -3 -12 10 -18 10 -27 1 -7 -7 -12 -8 -12 -2 0 6 -7 11 -15 11 -8 0 -15 -5
-15 -10 0 -5 -5 -5 -13 1 -8 7 -18 7 -27 2 -8 -5 -18 -6 -23 -3 -16 10 -67 9
-67 -1 0 -6 -4 -5 -9 3 -7 11 -9 11 -14 0 -3 -8 -6 -9 -6 -3 -1 11 -52 11 -70
0 -5 -4 -12 -2 -16 3 -3 7 -15 7 -29 1 -13 -5 -26 -6 -29 -3 -10 9 -77 9 -77
-1 0 -4 -8 -2 -17 5 -15 12 -16 12 -8 -1 7 -12 6 -13 -6 -3 -12 10 -18 10 -27
1 -7 -7 -12 -8 -12 -2 0 6 -7 11 -15 11 -8 0 -15 -5 -15 -10 0 -5 -5 -5 -13 1
-8 7 -18 7 -27 2 -8 -5 -18 -6 -23 -3 -16 10 -67 9 -67 -1 0 -6 -4 -5 -9 3 -7
11 -9 11 -14 0 -3 -8 -6 -9 -6 -3 -1 11 -52 11 -70 0 -5 -4 -12 -2 -16 3 -3 6
-15 7 -29 1 -12 -4 -29 -4 -36 0 -8 5 -21 5 -31 0 -9 -5 -19 -6 -23 -3 -10 10
-56 10 -56 0 0 -5 -6 -5 -13 1 -8 7 -18 7 -27 2 -9 -5 -19 -5 -26 1 -8 7 -14
6 -19 -1 -3 -6 -11 -7 -18 -3 -17 10 -57 10 -57 0 0 -5 -6 -5 -13 1 -8 7 -18
7 -27 2 -9 -5 -19 -5 -26 1 -8 7 -14 6 -19 -1 -3 -6 -11 -7 -18 -3 -17 10 -57
10 -57 0 0 -5 -6 -5 -13 1 -8 7 -18 7 -27 2 -9 -5 -19 -5 -26 1 -8 7 -14 6
-19 -1 -3 -6 -11 -7 -18 -3 -17 10 -57 10 -57 0 0 -5 -6 -5 -13 1 -8 7 -18 7
-27 2 -9 -5 -19 -5 -26 1 -8 7 -14 6 -19 -1 -3 -6 -11 -7 -18 -3 -17 10 -57
10 -57 0 0 -5 -6 -5 -13 1 -8 7 -18 7 -27 2 -9 -5 -19 -5 -26 1 -8 7 -14 6
-19 -1 -3 -6 -11 -7 -18 -3 -17 10 -57 10 -57 0 0 -5 -6 -5 -13 1 -8 7 -18 7
-27 2 -9 -5 -19 -5 -26 1 -8 7 -14 6 -19 -1 -3 -6 -11 -7 -18 -3 -17 10 -57
10 -57 0 0 -5 -6 -5 -13 1 -8 7 -18 7 -27 2 -9 -5 -19 -5 -26 1 -8 7 -14 6
-19 -1 -3 -6 -11 -7 -18 -3 -17 10 -57 10 -57 0 0 -5 -6 -5 -13 1 -8 7 -18 7
-27 2 -9 -5 -19 -5 -26 1 -8 7 -14 6 -19 -1 -3 -6 -11 -7 -18 -3 -17 10 -57
10 -57 0 0 -5 -6 -5 -13 1 -8 7 -18 7 -27 2 -9 -5 -19 -5 -26 1 -8 7 -14 6
-19 -1 -3 -6 -11 -7 -18 -3 -17 10 -57 10 -57 0 0 -5 -6 -5 -13 1 -8 7 -18 7
-27 2 -9 -5 -19 -5 -26 1 -8 7 -14 6 -19 -1 -3 -6 -11 -7 -18 -3 -17 10 -57
10 -57 0 0 -5 -6 -5 -13 1 -8 7 -18 7 -27 2 -9 -5 -19 -5 -26 1 -8 7 -14 6
-19 -1 -3 -6 -11 -7 -18 -3 -17 10 -57 10 -57 0 0 -5 -6 -5 -13 1 -8 7 -18 7
-27 2 -9 -5 -19 -5 -26 1 -8 7 -14 6 -19 -1 -3 -6 -11 -7 -18 -3 -17 10 -57
10 -57 0 0 -5 -6 -5 -13 1 -8 7 -18 7 -27 2 -9 -5 -19 -5 -26 1 -8 7 -14 6
-19 -1 -3 -6 -11 -7 -18 -3 -17 10 -57 10 -57 0 0 -5 -6 -5 -13 1 -8 7 -18 7
-27 2 -9 -5 -19 -5 -26 1 -8 7 -14 6 -19 -1 -3 -6 -11 -7 -18 -3 -17 10 -57
10 -57 0 0 -5 -6 -5 -13 1 -8 7 -18 7 -27 2 -9 -5 -19 -5 -26 1 -8 7 -14 6
-19 -1 -3 -6 -11 -7 -18 -3 -17 10 -57 10 -57 -1 0 -6 -5 -5 -12 2 -7 7 -17 8
-29 2 -11 -7 -20 -7 -24 0 -3 5 -15 6 -29 0 -12 -4 -28 -5 -34 -1 -15 9 -54 7
-72 -4 -8 -5 -15 -4 -17 1 -4 11 -55 10 -72 0 -5 -4 -12 -2 -16 3 -3 7 -15 7
-29 1 -13 -5 -26 -6 -29 -3 -10 9 -77 9 -77 -1 0 -4 -8 -2 -17 5 -15 12 -16
12 -8 -1 7 -12 6 -13 -6 -3 -12 10 -18 10 -27 1 -7 -7 -12 -8 -12 -2 0 6 -7
11 -15 11 -8 0 -15 -5 -15 -10 0 -5 -5 -5 -13 1 -8 7 -18 7 -27 2 -8 -5 -18
-6 -23 -3 -16 10 -67 9 -67 -1 0 -6 -4 -5 -9 3 -7 11 -9 11 -14 0 -3 -8 -6 -9
-6 -3 -1 11 -52 11 -70 0 -5 -4 -12 -2 -16 3 -3 7 -15 7 -29 1 -13 -5 -26 -6
-29 -3 -10 9 -77 9 -77 -1 0 -4 -8 -2 -17 5 -15 12 -16 12 -8 -1 7 -12 6 -13
-6 -3 -12 10 -18 10 -27 1 -7 -7 -12 -8 -12 -2 0 6 -7 11 -15 11 -8 0 -15 -5
-15 -10 0 -5 -5 -5 -13 1 -8 7 -18 7 -27 2 -8 -5 -18 -6 -23 -3 -16 10 -67 9
-67 -1 0 -6 -4 -5 -9 3 -7 11 -9 11 -14 0 -3 -8 -6 -9 -6 -3 -1 11 -52 11 -70
0 -5 -4 -12 -2 -16 3 -3 7 -15 7 -29 1 -13 -5 -26 -6 -29 -3 -10 9 -77 9 -77
-1 0 -4 -8 -2 -17 5 -15 12 -16 12 -8 -1 7 -12 6 -13 -6 -3 -12 10 -18 10 -27
1 -7 -7 -12 -8 -12 -2 0 6 -7 11 -15 11 -8 0 -15 -5 -15 -10 0 -5 -5 -5 -13 1
-8 7 -18 7 -27 2 -8 -5 -18 -6 -23 -3 -16 10 -67 9 -67 -1 0 -6 -4 -5 -9 3 -7
11 -9 11 -14 0 -3 -8 -6 -9 -6 -3 -1 11 -52 11 -70 0 -5 -4 -12 -2 -16 3 -3 7
-15 7 -29 1 -13 -5 -26 -6 -29 -3 -10 9 -77 9 -77 -1 0 -4 -8 -2 -17 5 -15 12
-16 12 -8 -1 7 -12 6 -13 -6 -3 -12 10 -18 10 -27 1 -7 -7 -12 -8 -12 -2 0 6
-7 11 -15 11 -8 0 -15 -5 -15 -10 0 -5 -5 -5 -13 1 -8 7 -18 7 -27 2 -8 -5
-18 -6 -23 -3 -16 10 -67 9 -67 -1 0 -6 -4 -5 -9 3 -7 11 -9 11 -14 0 -3 -8
-6 -9 -6 -3 -1 11 -52 11 -70 0 -5 -4 -12 -2 -16 3 -3 7 -15 7 -29 1 -13 -5
-26 -6 -29 -3 -10 9 -77 9 -77 -1 0 -4 -8 -2 -17 5 -15 12 -16 12 -8 -1 7 -12
6 -13 -6 -3 -12 10 -18 10 -27 1 -7 -7 -12 -8 -12 -2 0 6 -7 11 -15 11 -8 0
-15 -5 -15 -10 0 -5 -5 -5 -13 1 -8 7 -18 7 -27 2 -8 -5 -18 -6 -23 -3 -16 10
-67 9 -67 -1 0 -6 -4 -5 -9 3 -7 11 -9 11 -14 0 -3 -8 -6 -9 -6 -3 -1 11 -52
11 -70 0 -5 -4 -12 -2 -16 3 -3 7 -15 7 -29 1 -13 -5 -26 -6 -29 -3 -10 9 -77
9 -77 -1 0 -4 -8 -2 -17 5 -15 12 -16 12 -8 -1 7 -12 6 -13 -6 -3 -12 10 -18
10 -27 1 -7 -7 -12 -8 -12 -2 0 6 -7 11 -15 11 -8 0 -15 -5 -15 -10 0 -5 -5
-5 -13 1 -8 7 -18 7 -27 2 -8 -5 -18 -6 -23 -3 -16 10 -67 9 -67 -1 0 -6 -4
-5 -9 3 -7 11 -9 11 -14 0 -3 -8 -6 -9 -6 -3 -1 11 -52 11 -70 0 -5 -4 -12 -2
-16 3 -3 7 -15 7 -29 1 -13 -5 -26 -6 -29 -3 -10 9 -77 9 -77 -1 0 -4 -8 -2
-17 5 -15 12 -16 12 -8 -1 7 -12 6 -13 -6 -3 -12 10 -18 10 -27 1 -7 -7 -12
-8 -12 -2 0 6 -7 11 -15 11 -8 0 -15 -5 -15 -10 0 -5 -5 -5 -13 1 -8 7 -18 7
-27 2 -8 -5 -18 -6 -23 -3 -16 10 -67 9 -67 -1 0 -6 -4 -5 -9 3 -7 11 -9 11
-14 0 -3 -8 -6 -9 -6 -3 -1 11 -52 11 -70 0 -5 -4 -12 -2 -16 3 -3 7 -15 7
-29 1 -13 -5 -26 -6 -29 -3 -10 9 -77 9 -77 -1 0 -4 -8 -2 -17 5 -15 12 -16
12 -8 -1 7 -12 6 -13 -6 -3 -12 10 -18 10 -27 1 -7 -7 -12 -8 -12 -2 0 6 -7
11 -15 11 -8 0 -15 -5 -15 -10 0 -5 -5 -5 -13 1 -8 7 -18 7 -27 2 -8 -5 -18
-6 -23 -3 -16 10 -67 9 -67 -1 0 -6 -4 -5 -9 3 -7 11 -9 11 -14 0 -3 -8 -6 -9
-6 -3 -1 11 -52 11 -70 0 -5 -4 -12 -2 -16 3 -3 7 -15 7 -29 1 -13 -5 -26 -6
-29 -3 -10 9 -77 9 -77 -1 0 -4 -8 -2 -17 5 -15 12 -16 12 -8 -1 7 -12 6 -13
-6 -3 -12 10 -18 10 -27 1 -7 -7 -12 -8 -12 -2 0 6 -7 11 -15 11 -8 0 -15 -5
-15 -10 0 -5 -5 -5 -13 1 -8 7 -18 7 -27 2 -8 -5 -18 -6 -23 -3 -16 10 -67 9
-67 -1 0 -6 -5 -4 -10 4 -9 13 -10 13 -10 0 0 -9 -3 -11 -8 -5 -9 13 -42 15
-42 3 0 -7 -4 -7 -12 0 -9 6 -28 6 -58 -2z"/>
</g>
</svg>
